<?xml version="1.0" encoding="iso-8859-1"?>
<!-- Generator: Adobe Illustrator 19.0.0, SVG Export Plug-In . SVG Version: 6.00 Build 0)  -->
<svg version="1.1" id="Layer_1" xmlns="http://www.w3.org/2000/svg" xmlns:xlink="http://www.w3.org/1999/xlink" x="0px" y="0px"
	 viewBox="0 0 496 496" style="enable-background:new 0 0 496 496;" xml:space="preserve">
<g>
	<path style="fill:#AA7544;" d="M495.2,162.7c0,8.8-7.2,15.2-15.2,15.2H16c-8.8,0-15.2-7.2-15.2-15.2l0,0c0-8.8,7.2-15.2,15.2-15.2
		h464C488.8,147.5,495.2,154.7,495.2,162.7L495.2,162.7z"/>
	<path style="fill:#AA7544;" d="M495.2,301.9c0,8.8-7.2,15.2-15.2,15.2H16c-8.8,0-15.2-7.2-15.2-15.2l0,0c0-8.8,7.2-15.2,15.2-15.2
		h464C488.8,286.7,495.2,293.1,495.2,301.9L495.2,301.9z"/>
</g>
<path style="fill:#996430;" d="M100.8,104.3L72,78.7c-4-4-11.2-4-15.2,0L28,104.3c-2.4,2.4-4,5.6-4,8.8v295.2
	c0,6.4,4.8,11.2,11.2,11.2h57.6c6.4,0,11.2-4.8,11.2-11.2V113.1C104.8,109.9,103.2,106.7,100.8,104.3z"/>
<path style="fill:#895527;" d="M72,90.7c-4-4-11.2-4-15.2,0L28,117.1c-2.4,2.4-4,5.6-4,8.8v282.4c0,6.4,4.8,11.2,11.2,11.2h57.6
	c6.4,0,11.2-4.8,11.2-11.2V125.9c0-3.2-1.6-6.4-4-8.8L72,90.7z"/>
<g>
	<path style="fill:#72431F;" d="M93.6,419.5c6.4,0,11.2-4.8,11.2-11.2V125.9c0-3.2-1.6-6.4-4-8.8L72,90.7c-4-4-11.2-4-15.2,0
		L28,117.1c-2.4,2.4-4,5.6-4,8.8"/>
	<path style="fill:#72431F;" d="M128.8,414.7c0,3.2-3.2,6.4-6.4,6.4H6.4c-3.2,0-6.4-3.2-6.4-6.4l0,0c0-3.2,3.2-6.4,6.4-6.4h116
		C125.6,408.3,128.8,411.5,128.8,414.7L128.8,414.7z"/>
</g>
<g>
	<circle style="fill:#AA7544;" cx="64" cy="164.3" r="7.2"/>
	<circle style="fill:#AA7544;" cx="64" cy="303.5" r="7.2"/>
</g>
<path style="fill:#996430;" d="M223.2,104.3l-28.8-26.4c-4-4-11.2-4-15.2,0l-28.8,26.4c-2.4,2.4-4,5.6-4,8.8v295.2
	c0,6.4,4.8,11.2,11.2,11.2H216c6.4,0,11.2-4.8,11.2-11.2V113.1C227.2,109.9,225.6,106.7,223.2,104.3z"/>
<path style="fill:#895527;" d="M194.4,90.7c-4-4-11.2-4-15.2,0l-28.8,26.4c-2.4,2.4-4,5.6-4,8.8v282.4c0,6.4,4.8,11.2,11.2,11.2H216
	c6.4,0,11.2-4.8,11.2-11.2V125.9c0-3.2-1.6-6.4-4-8.8L194.4,90.7z"/>
<g>
	<path style="fill:#72431F;" d="M216,419.5c6.4,0,11.2-4.8,11.2-11.2V125.9c0-3.2-1.6-6.4-4-8.8l-28.8-26.4c-4-4-11.2-4-15.2,0
		l-28.8,26.4c-2.4,2.4-4,5.6-4,8.8"/>
	<path style="fill:#72431F;" d="M251.2,414.7c0,3.2-3.2,6.4-6.4,6.4h-116c-3.2,0-6.4-3.2-6.4-6.4l0,0c0-3.2,3.2-6.4,6.4-6.4h116
		C248,408.3,251.2,411.5,251.2,414.7L251.2,414.7z"/>
</g>
<g>
	<circle style="fill:#AA7544;" cx="186.4" cy="164.3" r="7.2"/>
	<circle style="fill:#AA7544;" cx="186.4" cy="303.5" r="7.2"/>
</g>
<path style="fill:#996430;" d="M345.6,104.3l-28.8-26.4c-4-4-11.2-4-15.2,0l-28.8,26.4c-2.4,2.4-4,5.6-4,8.8v295.2
	c0,6.4,4.8,11.2,11.2,11.2h57.6c6.4,0,11.2-4.8,11.2-11.2V113.1C349.6,109.9,348,106.7,345.6,104.3z"/>
<path style="fill:#895527;" d="M316.8,90.7c-4-4-11.2-4-15.2,0l-28.8,26.4c-2.4,2.4-4,5.6-4,8.8v282.4c0,6.4,4.8,11.2,11.2,11.2
	h57.6c6.4,0,11.2-4.8,11.2-11.2V125.9c0-3.2-1.6-6.4-4-8.8L316.8,90.7z"/>
<g>
	<path style="fill:#72431F;" d="M338.4,419.5c6.4,0,11.2-4.8,11.2-11.2V125.9c0-3.2-1.6-6.4-4-8.8l-28.8-26.4c-4-4-11.2-4-15.2,0
		l-28.8,26.4c-2.4,2.4-4,5.6-4,8.8"/>
	<path style="fill:#72431F;" d="M373.6,414.7c0,3.2-3.2,6.4-6.4,6.4h-116c-3.2,0-6.4-3.2-6.4-6.4l0,0c0-3.2,3.2-6.4,6.4-6.4h116
		C370.4,408.3,373.6,411.5,373.6,414.7L373.6,414.7z"/>
</g>
<g>
	<circle style="fill:#AA7544;" cx="308.8" cy="164.3" r="7.2"/>
	<circle style="fill:#AA7544;" cx="308.8" cy="303.5" r="7.2"/>
</g>
<path style="fill:#996430;" d="M468,104.3l-28.8-26.4c-4-4-11.2-4-15.2,0l-28.8,26.4c-2.4,2.4-4,5.6-4,8.8v295.2
	c0,6.4,4.8,11.2,11.2,11.2H460c6.4,0,11.2-4.8,11.2-11.2V113.1C472,109.9,470.4,106.7,468,104.3z"/>
<path style="fill:#895527;" d="M439.2,90.7c-4-4-11.2-4-15.2,0l-28.8,26.4c-2.4,2.4-4,5.6-4,8.8v282.4c0,6.4,4.8,11.2,11.2,11.2H460
	c6.4,0,11.2-4.8,11.2-11.2V125.9c0-3.2-1.6-6.4-4-8.8L439.2,90.7z"/>
<g>
	<path style="fill:#72431F;" d="M460.8,419.5c6.4,0,11.2-4.8,11.2-11.2V125.9c0-3.2-1.6-6.4-4-8.8l-28.8-26.4c-4-4-11.2-4-15.2,0
		l-28.8,26.4c-2.4,2.4-4,5.6-4,8.8"/>
	<path style="fill:#72431F;" d="M496,414.7c0,3.2-3.2,6.4-6.4,6.4h-116c-3.2,0-6.4-3.2-6.4-6.4l0,0c0-3.2,3.2-6.4,6.4-6.4h116
		C492.8,408.3,496,411.5,496,414.7L496,414.7z"/>
</g>
<g>
	<circle style="fill:#AA7544;" cx="431.2" cy="164.3" r="7.2"/>
	<circle style="fill:#AA7544;" cx="431.2" cy="303.5" r="7.2"/>
</g>
<g>
</g>
<g>
</g>
<g>
</g>
<g>
</g>
<g>
</g>
<g>
</g>
<g>
</g>
<g>
</g>
<g>
</g>
<g>
</g>
<g>
</g>
<g>
</g>
<g>
</g>
<g>
</g>
<g>
</g>
</svg>
