<?xml version="1.0" encoding="iso-8859-1"?>
<!-- Generator: Adobe Illustrator 19.0.0, SVG Export Plug-In . SVG Version: 6.00 Build 0)  -->
<svg xmlns="http://www.w3.org/2000/svg" xmlns:xlink="http://www.w3.org/1999/xlink" version="1.1" id="Capa_1" x="0px" y="0px" viewBox="0 0 59.99 59.99" style="enable-background:new 0 0 59.99 59.99;" xml:space="preserve" width="512px" height="512px">
<path d="M58.343,51.705c0.961-1.155,1.008-2.866,0.028-4.077l-12.316-15.21c-0.958-1.182-2.585-1.499-3.899-0.863l-6.787-7.556  l3.628-4.036c2.582,2.804,4.757,5.983,6.413,9.413l0.408,0.847l0.716-0.092c8.155-1.051,14.387-9.126,13.337-17.282l-0.093-0.717  l-0.923-0.179c-3.628-0.711-7.154-1.956-10.437-3.662l1.029-1.287c0.565-0.779,0.791-1.732,0.637-2.683  c-0.155-0.95-0.671-1.782-1.454-2.342L47.961,1.5c-1.603-1.145-3.842-0.78-4.966,0.775l-1.29,1.613l-1.895-1.462  c-0.427-0.33-0.956-0.474-1.493-0.405c-0.536,0.069-1.013,0.342-1.343,0.77l-5.972,7.739c-0.33,0.427-0.475,0.958-0.405,1.494  c0.069,0.535,0.343,1.012,0.77,1.342l1.656,1.278l-3.028,3.371l-3.028-3.371l1.655-1.278c0.428-0.33,0.701-0.806,0.771-1.342  c0.069-0.536-0.074-1.066-0.404-1.494l-5.973-7.74c-0.33-0.428-0.807-0.701-1.343-0.77c-0.535-0.069-1.066,0.075-1.492,0.404  l-1.896,1.463l-1.262-1.575c-1.153-1.593-3.395-1.957-4.994-0.813l-0.669,0.479c-0.782,0.56-1.299,1.392-1.453,2.342  s0.071,1.903,0.664,2.721l1,1.249c-3.283,1.707-6.809,2.951-10.438,3.662L0.211,12.13l-0.093,0.718  C-0.932,21.004,5.3,29.08,13.455,30.13l0.716,0.092l0.408-0.847c1.656-3.429,3.832-6.609,6.413-9.412l3.628,4.036l-6.787,7.557  c-0.535-0.26-1.13-0.374-1.735-0.311c-0.854,0.09-1.622,0.507-2.162,1.174L1.62,47.627c-0.541,0.667-0.79,1.505-0.7,2.359  c0.068,0.642,0.32,1.236,0.725,1.72l-0.768,0.96c-0.692,0.866-0.99,1.947-0.838,3.045c0.152,1.097,0.731,2.057,1.633,2.701  c0.703,0.503,1.517,0.746,2.323,0.746c1.175,0,2.335-0.517,3.122-1.5l0.941-1.176c0.363,0.098,0.732,0.161,1.101,0.161  c0.956,0,1.894-0.328,2.617-0.982c0.793-0.717,1.263-1.692,1.324-2.746c0.024-0.41,0.255-0.899,0.704-1.006  c0.869-0.205,1.625-0.681,2.188-1.375c0.563-0.695,0.87-1.532,0.891-2.422c0.009-0.395,0.317-0.775,0.701-0.867  c0.866-0.205,1.622-0.68,2.185-1.375s0.87-1.533,0.891-2.425c0.01-0.462,0.44-0.789,0.837-0.897  c0.853-0.234,1.587-0.731,2.125-1.438c0.937-1.232,0.978-2.955,0.257-4.33l6.118-6.805l6.117,6.804  c-0.722,1.375-0.681,3.097,0.256,4.33c0.537,0.707,1.272,1.204,2.126,1.438c0.396,0.108,0.826,0.436,0.837,0.898  c0.021,0.892,0.329,1.731,0.891,2.424c0.562,0.694,1.316,1.17,2.184,1.375c0.384,0.091,0.692,0.472,0.701,0.868  c0.022,0.891,0.33,1.728,0.891,2.42c0.563,0.694,1.318,1.17,2.188,1.375c0.449,0.106,0.68,0.596,0.704,1.006  c0.062,1.053,0.531,2.028,1.324,2.746c0.724,0.655,1.661,0.982,2.617,0.982c0.369,0,0.738-0.064,1.102-0.161l0.941,1.177  c0.787,0.983,1.947,1.499,3.122,1.499c0.807,0,1.619-0.244,2.322-0.746c0.901-0.645,1.481-1.604,1.634-2.702  c0.151-1.098-0.146-2.179-0.838-3.044L58.343,51.705z M46.98,28.036c-0.55-1.102-1.164-2.17-1.812-3.218  c2.673-0.674,5.01-2.185,6.679-4.369c1.664-2.177,2.517-4.828,2.486-7.59c1.194,0.369,2.401,0.696,3.623,0.953  C58.422,20.428,53.498,26.809,46.98,28.036z M44.586,3.486c0.511-0.705,1.506-0.866,2.211-0.359l0.669,0.479  c0.347,0.248,0.575,0.616,0.644,1.037c0.069,0.421-0.031,0.842-0.253,1.149l-1.208,1.51c-0.489-0.287-0.961-0.585-1.428-0.886  c-0.138-0.089-0.278-0.174-0.414-0.265c-0.331-0.218-0.646-0.444-0.964-0.669c-0.181-0.128-0.36-0.259-0.538-0.391L44.586,3.486z   M38.588,4.01l2.815,2.172c0.492,0.379,1.006,0.749,1.531,1.113c0.227,0.159,0.455,0.314,0.685,0.468  c0.244,0.162,0.494,0.32,0.744,0.479c0.597,0.381,1.204,0.746,1.82,1.095c0.075,0.043,0.147,0.087,0.222,0.13l0.533,0.298  c1.726,0.931,3.521,1.73,5.362,2.406c0.051,0.67,0.04,1.333-0.031,1.984l-2.189-1.628c-0.441-0.33-1.07-0.236-1.399,0.206  c-0.329,0.443-0.237,1.069,0.206,1.399l2.915,2.169c-0.197,0.591-0.45,1.16-0.753,1.706l-5.317-4.53  c-0.421-0.357-1.052-0.309-1.409,0.113c-0.358,0.42-0.309,1.051,0.112,1.41l5.466,4.657c-0.577,0.674-1.231,1.266-1.954,1.76  l-2.481-2.782c-0.367-0.414-1.001-0.447-1.411-0.081c-0.413,0.368-0.449,1-0.081,1.412l2.166,2.429  c-0.682,0.285-1.401,0.495-2.147,0.632c-1.111-1.601-2.326-3.129-3.653-4.556l0.003-0.003l-0.652-0.67  c-0.058-0.059-0.117-0.115-0.175-0.174c-0.43-0.436-0.868-0.862-1.317-1.279c-0.247-0.231-0.494-0.461-0.743-0.682  c-0.195-0.172-0.391-0.341-0.589-0.509c-0.479-0.409-0.959-0.807-1.443-1.181c-0.006-0.005-0.012-0.01-0.018-0.015l-2.82-2.204  L38.588,4.01z M13.34,7.302L12.161,5.83c-0.25-0.345-0.35-0.767-0.281-1.188s0.297-0.789,0.644-1.037l0.669-0.479  c0.275-0.197,0.594-0.293,0.912-0.293c0.499,0,0.998,0.237,1.328,0.691l1.253,1.566c-0.186,0.137-0.373,0.274-0.562,0.408  c-0.307,0.217-0.612,0.435-0.931,0.645c-0.146,0.098-0.297,0.189-0.445,0.285C14.287,6.725,13.822,7.019,13.34,7.302z   M13.009,28.036C6.491,26.809,1.567,20.428,2.032,13.811c1.222-0.256,2.428-0.584,3.622-0.952  C5.59,18.556,9.33,23.434,14.821,24.818C14.172,25.866,13.559,26.934,13.009,28.036z M15.998,23.025  c-0.753-0.138-1.47-0.351-2.146-0.634l2.163-2.426c0.368-0.412,0.332-1.044-0.081-1.412c-0.41-0.366-1.044-0.333-1.411,0.081  l-2.476,2.777c-0.731-0.501-1.385-1.093-1.954-1.758l5.461-4.654c0.421-0.358,0.471-0.99,0.112-1.41  c-0.357-0.421-0.989-0.47-1.409-0.113l-5.312,4.527c-0.301-0.541-0.554-1.111-0.753-1.706l2.91-2.165  c0.443-0.33,0.535-0.956,0.206-1.399c-0.33-0.443-0.957-0.537-1.399-0.206l-2.187,1.627c-0.072-0.646-0.083-1.308-0.032-1.983  c1.853-0.68,3.658-1.485,5.394-2.424l0.5-0.28c0.072-0.04,0.141-0.083,0.213-0.124c0.609-0.345,1.208-0.705,1.797-1.08  c0.266-0.168,0.532-0.337,0.791-0.509c0.22-0.147,0.439-0.297,0.656-0.448c0.53-0.367,1.049-0.74,1.544-1.122l0.035-0.027  l2.813-2.143l5.969,7.77l-1.774,1.369l-0.001-0.001l-0.89,0.689l-0.151,0.117c-0.006,0.005-0.012,0.01-0.018,0.015  c-0.484,0.373-0.965,0.772-1.444,1.182c-0.197,0.167-0.393,0.336-0.587,0.507c-0.247,0.219-0.492,0.447-0.736,0.676  c-0.453,0.421-0.897,0.851-1.331,1.292c-0.056,0.057-0.113,0.111-0.169,0.168l-0.652,0.67l0.003,0.003  C18.324,19.897,17.108,21.424,15.998,23.025z M22.392,18.529c0.484-0.475,0.973-0.932,1.466-1.37  c0.007-0.006,0.014-0.013,0.022-0.02c0.278-0.247,0.559-0.473,0.839-0.708c0.222-0.185,0.444-0.37,0.671-0.549l3.261,3.629  l-2.686,2.991L22.392,18.529z M2.836,56.786c-0.45-0.322-0.74-0.801-0.815-1.349c-0.076-0.548,0.072-1.088,0.419-1.521l0.722-0.903  l2.935,2.376l0.168,0.136l-0.709,0.886C4.892,57.238,3.696,57.403,2.836,56.786z M22.029,39.9c-0.27,0.355-0.637,0.604-1.063,0.721  c-1.352,0.371-2.279,1.489-2.308,2.781c-0.01,0.445-0.164,0.864-0.444,1.211c-0.282,0.348-0.659,0.585-1.092,0.688  c-1.269,0.301-2.21,1.465-2.24,2.767c-0.01,0.443-0.164,0.862-0.445,1.209s-0.659,0.585-1.092,0.688  c-1.26,0.297-2.16,1.437-2.241,2.835c-0.031,0.527-0.269,1.017-0.67,1.379c-0.536,0.485-1.328,0.594-2.042,0.333L8.162,54.4  c-0.085-0.041-0.157-0.081-0.225-0.122c-0.075-0.048-0.15-0.093-0.22-0.15l-4.364-3.534C3.1,50.39,2.942,50.1,2.909,49.778  c-0.034-0.323,0.06-0.639,0.265-0.891l12.316-15.21c0.239-0.296,0.591-0.45,0.944-0.45c0.268,0,0.538,0.088,0.763,0.27l2.163,1.752  l2.201,1.783c0.062,0.05,0.112,0.11,0.167,0.166c0.04,0.041,0.086,0.078,0.123,0.122l0.004,0.005  C22.462,38.064,22.565,39.196,22.029,39.9z M22.555,35.262l-3.104-2.514l10.673-11.883l1.216-1.354l0,0l3.261-3.63  c0.226,0.179,0.447,0.364,0.669,0.548c0.28,0.235,0.561,0.46,0.84,0.707c0.015,0.014,0.03,0.028,0.045,0.042  c0.486,0.433,0.968,0.883,1.445,1.351l-3.573,3.974l-0.001-0.001l-5.374,5.979l0,0L22.555,35.262z M34.024,25.495l6.514,7.253  l-3.104,2.513l-6.096-6.78L34.024,25.495z M48.885,52.8c-0.081-1.399-0.981-2.539-2.241-2.836c-0.433-0.103-0.811-0.34-1.092-0.688  c-0.28-0.346-0.435-0.765-0.445-1.209c-0.03-1.302-0.972-2.466-2.24-2.767c-0.433-0.102-0.81-0.34-1.091-0.688  c-0.28-0.347-0.435-0.765-0.444-1.211c-0.03-1.293-0.958-2.411-2.309-2.781c-0.426-0.117-0.793-0.366-1.063-0.72  c-0.534-0.703-0.433-1.83,0.168-2.568l0.01-0.013c0.066-0.079,0.142-0.149,0.218-0.218c0.025-0.022,0.045-0.049,0.071-0.07l-0.001,0  l4.365-3.535c0.52-0.42,1.286-0.341,1.708,0.18l12.316,15.21c0.204,0.252,0.298,0.568,0.264,0.891  c-0.033,0.322-0.19,0.612-0.441,0.815l-3.131,2.535l-1.236,1.001c-0.07,0.057-0.145,0.102-0.22,0.15  c-0.068,0.04-0.14,0.08-0.225,0.122l-0.232,0.113c-0.714,0.261-1.505,0.151-2.041-0.334C49.153,53.816,48.916,53.327,48.885,52.8z   M57.97,55.436c-0.076,0.548-0.366,1.028-0.816,1.35c-0.862,0.616-2.057,0.451-2.719-0.376l-0.709-0.886l1.459-1.181l1.644-1.331  l0.723,0.904C57.896,54.349,58.046,54.889,57.97,55.436z" fill="#FFFFFF"/>
<g>
</g>
<g>
</g>
<g>
</g>
<g>
</g>
<g>
</g>
<g>
</g>
<g>
</g>
<g>
</g>
<g>
</g>
<g>
</g>
<g>
</g>
<g>
</g>
<g>
</g>
<g>
</g>
<g>
</g>
</svg>
