<?xml version="1.0" encoding="iso-8859-1"?>
<!-- Generator: Adobe Illustrator 19.0.0, SVG Export Plug-In . SVG Version: 6.00 Build 0)  -->
<svg version="1.1" id="Layer_1" xmlns="http://www.w3.org/2000/svg" xmlns:xlink="http://www.w3.org/1999/xlink" x="0px" y="0px"
	 viewBox="0 0 511.934 511.934" style="enable-background:new 0 0 511.934 511.934;" xml:space="preserve">
<g>
	<path style="fill:#556080;" d="M494.278,211.387H132.347c-9.71,0-17.655-7.945-17.655-17.655s7.945-17.655,17.655-17.655h361.931
		c9.71,0,17.655,7.945,17.655,17.655S503.989,211.387,494.278,211.387"/>
	<path style="fill:#556080;" d="M417.478,422.367L12.292,275.829c-10.593-4.414-15.007-15.89-10.593-26.483l0,0
		c4.414-8.828,15.007-13.241,24.717-9.71l403.421,150.069c8.828,3.531,13.241,14.124,9.71,22.952
		C436.899,420.601,426.306,425.898,417.478,422.367"/>
</g>
<path style="fill:#323E5B;" d="M441.313,344.684c-22.952,0-44.138,11.476-57.379,28.248l45.903,16.772
	c8.828,3.531,13.241,14.124,9.71,22.952c-3.531,8.828-14.124,13.241-22.952,9.71l-45.903-16.772c0,2.648-0.883,6.179-0.883,9.71
	c0,38.841,31.779,70.621,70.621,70.621s70.621-31.779,70.621-70.621S480.154,344.684,441.313,344.684"/>
<path style="fill:#9E5A23;" d="M458.968,176.077c-1.766-13.241-12.359-23.834-25.6-25.6c0,0-0.883-3.531,0-5.297
	c19.421-18.538,5.297-42.372-26.483-30.897c-0.883,0-2.648-9.71,0-13.241c15.007-19.421,6.179-38.841-17.655-28.248
	c-2.648,0.883-5.297-1.766-8.828-2.648l0,0c0-0.883-0.883-6.179-0.883-8.828c-3.531-15.007-17.655-26.483-34.428-26.483
	c-6.179,0-12.359,1.766-17.655,5.297c-1.766,0.883-7.062-2.648-8.828-4.414c-6.179-6.179-14.124-9.71-22.069-9.71
	c-16.772,0-30.897,14.124-30.897,30.897c0,1.766-26.483-5.297-22.952,22.069c1.766,19.421-3.531,14.124-12.359,8.828
	c-28.248-17.655-40.607,15.007-26.483,30.897c0.883,0.883,7.945,11.476-8.828,5.297c-15.007-5.297-26.483,17.655-27.366,34.428
	c0,8.828-15.007,10.593-18.538,17.655H458.968z"/>
<g>
	<path style="fill:#7E89A5;" d="M257.699,364.105l-67.09,67.09c-1.766,1.766-5.297,0-5.297-1.766v-91.807l-35.31-12.359v135.062
		c0,14.124,12.359,24.717,26.483,24.717c7.062,0,13.241-2.648,17.655-7.062l99.752-99.752L257.699,364.105z"/>
	<path style="fill:#7E89A5;" d="M150.003,282.891c1.766,1.766,3.531,2.648,5.297,4.414l168.607,62.676c0.883,0,2.648,0,3.531,0
		c14.124-1.766,26.483-9.71,38.841-19.421l128-119.172H132.347l4.414,37.076C137.644,261.705,142.94,273.181,150.003,282.891"/>
</g>
<g>
</g>
<g>
</g>
<g>
</g>
<g>
</g>
<g>
</g>
<g>
</g>
<g>
</g>
<g>
</g>
<g>
</g>
<g>
</g>
<g>
</g>
<g>
</g>
<g>
</g>
<g>
</g>
<g>
</g>
</svg>
